<svg width="60" height="60" viewBox="0 0 60 60" fill="none" xmlns="http://www.w3.org/2000/svg">
<g id="bx:time-five">
<path id="Vector" d="M30 5C16.215 5 5 16.215 5 30C5 43.785 16.215 55 30 55C43.785 55 55 43.785 55 30C55 16.215 43.785 5 30 5ZM30 50C18.9725 50 10 41.0275 10 30C10 18.9725 18.9725 10 30 10C41.0275 10 50 18.9725 50 30C50 41.0275 41.0275 50 30 50Z" fill="#47B7FF"/>
<path id="Vector_2" d="M32.5 17.5H27.5V31.035L35.7325 39.2675L39.2675 35.7325L32.5 28.965V17.5Z" fill="#47B7FF"/>
</g>
</svg>
