<svg width="60" height="60" viewBox="0 0 60 60" fill="none" xmlns="http://www.w3.org/2000/svg">
<g id="eos-icons:modified-date-outlined">
<path id="Vector" d="M33.43 27.5326L34.965 29.0676L19.865 44.1676H18.3325V42.6326L33.4325 27.5326H33.43ZM39.4275 17.5001C38.9901 17.5016 38.5708 17.6749 38.26 17.9826L35.21 21.0326L41.46 27.2826L44.51 24.2326C44.6645 24.0784 44.7871 23.8953 44.8707 23.6937C44.9544 23.492 44.9974 23.2759 44.9974 23.0576C44.9974 22.8393 44.9544 22.6232 44.8707 22.4216C44.7871 22.2199 44.6645 22.0368 44.51 21.8826L40.61 17.9826C40.4556 17.8274 40.2716 17.7047 40.0689 17.6218C39.8662 17.5389 39.649 17.4976 39.43 17.5001H39.4275ZM33.4275 22.8176L15 41.2501V47.5001H21.25L39.68 29.0676L33.4275 22.8176Z" fill="#DC3545"/>
<path id="Vector_2" d="M47.5 2.5H42.5V7.5H17.5V2.5H12.5V7.5H10C8.67392 7.5 7.40215 8.02678 6.46447 8.96447C5.52678 9.90215 5 11.1739 5 12.5V52.5C5 53.8261 5.52678 55.0979 6.46447 56.0355C7.40215 56.9732 8.67392 57.5 10 57.5H50C51.3261 57.5 52.5979 56.9732 53.5355 56.0355C54.4732 55.0979 55 53.8261 55 52.5V12.5C55 11.1739 54.4732 9.90215 53.5355 8.96447C52.5979 8.02678 51.3261 7.5 50 7.5H47.5V2.5ZM10 52.5V12.5H50V52.5H10Z" fill="#DC3545"/>
</g>
</svg>
