<svg width="60" height="60" viewBox="0 0 60 60" fill="none" xmlns="http://www.w3.org/2000/svg">
<g id="fluent:book-number-24-regular">
<path id="Vector" d="M27.56 18.925L27.0025 21.2H24.325L24.07 21.2175C23.6211 21.2791 23.2097 21.5012 22.9119 21.8427C22.6141 22.1841 22.45 22.6219 22.45 23.075L22.4675 23.33C22.5291 23.7789 22.7512 24.1903 23.0927 24.4881C23.4341 24.7859 23.8719 24.95 24.325 24.95H26.0825L25.1125 28.915L23.1225 28.9175L22.8675 28.935C22.4186 28.9966 22.0072 29.2187 21.7094 29.5602C21.4116 29.9016 21.2475 30.3394 21.2475 30.7925L21.265 31.0475C21.3266 31.4964 21.5487 31.9078 21.8902 32.2056C22.2316 32.5034 22.6694 32.6675 23.1225 32.6675H24.195L23.8875 33.9325L23.8425 34.1825C23.7951 34.6337 23.9128 35.0867 24.1739 35.4577C24.435 35.8287 24.8218 36.0924 25.2625 36.2L25.5125 36.245C25.9637 36.2924 26.4167 36.1747 26.7877 35.9136C27.1587 35.6525 27.4224 35.2657 27.53 34.825L28.055 32.665H31.9025L31.6075 33.96L31.5675 34.21C31.5265 34.6621 31.6508 35.1137 31.9175 35.481C32.1841 35.8483 32.575 36.1065 33.0175 36.2075L33.2675 36.2475C33.7196 36.2885 34.1712 36.1642 34.5385 35.8975C34.9058 35.6309 35.164 35.24 35.265 34.7975L35.75 32.665L38.1 32.6675L38.355 32.65C38.8043 32.5889 39.2163 32.3671 39.5146 32.0256C39.813 31.684 39.9774 31.246 39.9775 30.7925L39.96 30.5375C39.8984 30.0886 39.6763 29.6772 39.3348 29.3794C38.9934 29.0816 38.5556 28.9175 38.1025 28.9175H36.61L37.5175 24.95H39.3175L39.5725 24.9325C40.0214 24.8709 40.4328 24.6488 40.7306 24.3073C41.0284 23.9659 41.1925 23.5281 41.1925 23.075L41.175 22.8225C41.1139 22.3732 40.8921 21.9612 40.5506 21.6629C40.209 21.3645 39.771 21.2001 39.3175 21.2H38.3775L38.7025 19.79L38.7425 19.54C38.7829 19.0883 38.6583 18.6374 38.3917 18.2705C38.1251 17.9037 37.7346 17.646 37.2925 17.545L37.0425 17.505C36.5908 17.4646 36.1399 17.5892 35.773 17.8558C35.4062 18.1224 35.1485 18.5129 35.0475 18.955L34.53 21.2H30.86L31.2 19.8175L31.245 19.5675C31.2969 19.0934 31.1663 18.6173 30.8796 18.2362C30.5929 17.855 30.1717 17.5975 29.7018 17.5159C29.2319 17.4344 28.7485 17.5349 28.3502 17.7972C27.9518 18.0594 27.6684 18.4636 27.5575 18.9275L27.56 18.925ZM29.945 24.95H33.67L32.765 28.915H28.975L29.945 24.95ZM16.25 5C14.5924 5 13.0027 5.65848 11.8306 6.83058C10.6585 8.00269 10 9.5924 10 11.25V48.75C10 50.4076 10.6585 51.9973 11.8306 53.1694C13.0027 54.3415 14.5924 55 16.25 55H49.375C49.8723 55 50.3492 54.8025 50.7008 54.4508C51.0525 54.0992 51.25 53.6223 51.25 53.125C51.25 52.6277 51.0525 52.1508 50.7008 51.7992C50.3492 51.4475 49.8723 51.25 49.375 51.25H16.25C15.587 51.25 14.9511 50.9866 14.4822 50.5178C14.0134 50.0489 13.75 49.413 13.75 48.75H49.375C49.8723 48.75 50.3492 48.5525 50.7008 48.2008C51.0525 47.8492 51.25 47.3723 51.25 46.875V11.25C51.25 10.4292 51.0883 9.61651 50.7742 8.85823C50.4602 8.09994 49.9998 7.41095 49.4194 6.83058C48.8391 6.25022 48.1501 5.78984 47.3918 5.47575C46.6335 5.16166 45.8208 5 45 5H16.25ZM47.5 45H13.75V11.25C13.75 10.587 14.0134 9.95107 14.4822 9.48223C14.9511 9.01339 15.587 8.75 16.25 8.75H45C45.663 8.75 46.2989 9.01339 46.7678 9.48223C47.2366 9.95107 47.5 10.587 47.5 11.25V45Z" fill="#36CA68"/>
</g>
</svg>
