<svg width="100" height="100" viewBox="0 0 100 100" fill="none" xmlns="http://www.w3.org/2000/svg">
<g id="iconamoon:file-close-fill">
<path id="Vector" fill-rule="evenodd" clip-rule="evenodd" d="M20.8337 8.33301C19.7286 8.33301 18.6688 8.77199 17.8874 9.5534C17.106 10.3348 16.667 11.3946 16.667 12.4997V79.1663C16.667 82.4815 17.984 85.661 20.3282 88.0052C22.6724 90.3494 25.8518 91.6663 29.167 91.6663H70.8337C74.1489 91.6663 77.3283 90.3494 79.6725 88.0052C82.0167 85.661 83.3337 82.4815 83.3337 79.1663V33.333C83.3334 32.228 82.8943 31.1684 82.1128 30.3872L61.2795 9.55384C60.4983 8.77239 59.4386 8.33324 58.3337 8.33301H20.8337ZM58.3337 18.3913L73.2753 33.333H58.3337V18.3913ZM44.6128 51.2205C43.827 50.4615 42.7745 50.0415 41.682 50.051C40.5895 50.0605 39.5444 50.4987 38.7719 51.2713C37.9994 52.0438 37.5612 53.0888 37.5517 54.1813C37.5422 55.2738 37.9622 56.3263 38.7212 57.1122L44.1087 62.4997L38.7212 67.8872C38.3232 68.2715 38.0058 68.7313 37.7874 69.2397C37.569 69.748 37.4541 70.2948 37.4493 70.848C37.4445 71.4012 37.5499 71.9499 37.7594 72.462C37.9689 72.974 38.2783 73.4393 38.6695 73.8305C39.0607 74.2217 39.5259 74.5311 40.038 74.7406C40.5501 74.9501 41.0987 75.0555 41.652 75.0507C42.2052 75.0459 42.752 74.931 43.2603 74.7126C43.7687 74.4942 44.2285 74.1768 44.6128 73.7788L50.0003 68.3913L55.3878 73.7788C56.1737 74.5378 57.2262 74.9578 58.3187 74.9483C59.4111 74.9388 60.4562 74.5006 61.2287 73.7281C62.0013 72.9556 62.4395 71.9105 62.449 70.818C62.4585 69.7255 62.0385 68.673 61.2795 67.8872L55.892 62.4997L61.2795 57.1122C62.0385 56.3263 62.4585 55.2738 62.449 54.1813C62.4395 53.0888 62.0013 52.0438 61.2287 51.2713C60.4562 50.4987 59.4111 50.0605 58.3187 50.051C57.2262 50.0415 56.1737 50.4615 55.3878 51.2205L50.0003 56.608L44.6128 51.2205Z" fill="#F24E1E"/>
</g>
</svg>
